# Blender 4.5.0
# www.blender.org
o Cube
v -0.120000 0.180000 1.250000
v -0.240000 0.360000 0.777219
v 0.120000 0.180000 1.250000
v 0.240000 0.360000 0.777219
v -0.120000 -0.180000 1.250000
v -0.240000 -0.360000 0.777219
v 0.120000 -0.180000 1.250000
v 0.240000 -0.360000 0.777219
v -0.120000 0.180000 -0.250000
v -0.240000 0.360000 0.125000
v 0.240000 0.360000 0.125000
v 0.120000 0.180000 -0.250000
v -0.240000 -0.360000 0.125000
v -0.120000 -0.180000 -0.250000
v 0.240000 -0.360000 0.125000
v 0.120000 -0.180000 -0.250000
v 0.256187 0.028362 1.165762
v 0.256187 0.000000 1.165762
v 0.256187 -0.028362 1.165762
v 0.367721 -0.077928 0.869743
v 0.367721 0.000000 0.869743
v 0.367721 0.077928 0.869743
v -0.120000 -0.090000 1.250000
v -0.120000 0.000000 1.250000
v -0.120000 0.090000 1.250000
v -0.322519 0.180000 0.777219
v -0.322519 0.000000 0.777219
v -0.322519 -0.180000 0.777219
v 0.120000 -0.090000 -0.250000
v 0.120000 0.000000 -0.250000
v 0.120000 0.090000 -0.250000
v 0.322519 0.180000 0.125000
v 0.322519 0.000000 0.125000
v 0.322519 -0.180000 0.125000
v -0.120000 0.090000 -0.250000
v -0.120000 0.000000 -0.250000
v -0.120000 -0.090000 -0.250000
v -0.322519 -0.180000 0.125000
v -0.322519 0.000000 0.125000
v -0.322519 0.180000 0.125000
v -0.040000 0.180000 1.250000
v 0.040000 0.180000 1.250000
v 0.080000 0.395620 0.777219
v -0.080000 0.395620 0.777219
v 0.040000 -0.180000 1.250000
v -0.040000 -0.180000 1.250000
v -0.080000 -0.395620 0.777219
v 0.080000 -0.395620 0.777219
v 0.040000 0.180000 -0.250000
v -0.040000 0.180000 -0.250000
v -0.080000 0.395620 0.125000
v 0.080000 0.395620 0.125000
v -0.040000 -0.180000 -0.250000
v 0.040000 -0.180000 -0.250000
v 0.080000 -0.395620 0.125000
v -0.080000 -0.395620 0.125000
v 0.040000 0.090000 -0.250000
v -0.040000 0.090000 -0.250000
v 0.040000 0.000000 -0.250000
v -0.040000 0.000000 -0.250000
v 0.040000 -0.090000 -0.250000
v -0.040000 -0.090000 -0.250000
v 0.040000 -0.090000 1.250000
v -0.040000 -0.090000 1.250000
v 0.040000 0.000000 1.250000
v -0.040000 0.000000 1.250000
v 0.040000 0.090000 1.250000
v -0.040000 0.090000 1.250000
v 0.120000 0.090000 1.250000
v 0.120000 0.000000 1.250000
v 0.120000 -0.090000 1.250000
v 0.322519 -0.180000 0.777219
v 0.322519 0.000000 0.777219
v 0.322519 0.180000 0.777219
v -0.190491 0.285736 0.297642
v -0.190491 0.285736 0.496069
v 0.190491 0.285736 0.496069
v 0.190491 0.285736 0.297642
v -0.190491 -0.285736 0.297642
v -0.190491 -0.285736 0.496069
v 0.190491 -0.285736 0.496069
v 0.190491 -0.285736 0.297642
v 0.255987 0.142868 0.496069
v 0.255987 0.142868 0.297642
v 0.255987 0.000000 0.496069
v 0.255987 0.000000 0.297642
v 0.255987 -0.142868 0.496069
v 0.255987 -0.142868 0.297642
v -0.255987 -0.142868 0.496069
v -0.255987 -0.142868 0.297642
v -0.255987 0.000000 0.496069
v -0.255987 0.000000 0.297642
v -0.255987 0.142868 0.496069
v -0.255987 0.142868 0.297642
v 0.063497 -0.314008 0.496069
v 0.063497 -0.314008 0.297642
v -0.063497 -0.314008 0.496069
v -0.063497 -0.314008 0.297642
v -0.063497 0.314008 0.496069
v -0.063497 0.314008 0.297642
v 0.063497 0.314008 0.496069
v 0.063497 0.314008 0.297642
vn -0.0000 0.9098 0.4150
vn 0.9192 -0.0000 0.3938
vn -0.0000 -0.9098 0.4150
vn -0.9192 -0.0000 0.3938
vn -0.0000 -0.0000 1.0000
vn -0.0000 0.8669 -0.4985
vn 0.8799 -0.0000 -0.4752
vn -0.0000 -0.8669 -0.4985
vn -0.8799 -0.0000 -0.4752
vn 0.2084 0.9359 -0.2839
vn -0.0000 -0.0000 -1.0000
vn -0.8776 0.4023 -0.2608
vn 0.8776 -0.4023 -0.2608
vn -0.2084 -0.9359 -0.2839
vn 0.8776 0.4023 -0.2608
vn 0.9731 -0.0000 -0.2303
vn -0.8776 -0.4023 -0.2608
vn -0.9731 -0.0000 -0.2303
vn -0.8160 0.3741 -0.4407
vn 0.8160 -0.3741 -0.4407
vn -0.8471 -0.3883 0.3629
vn 0.8471 0.3883 0.3629
vn 0.9358 -0.0000 0.3526
vn 0.2084 -0.9359 -0.2839
vn -0.0000 -0.9604 -0.2788
vn -0.2084 0.9359 -0.2839
vn -0.0000 0.9604 -0.2788
vn -0.1914 -0.8596 -0.4738
vn 0.1914 0.8596 -0.4738
vn 0.1999 -0.8978 0.3925
vn -0.1999 0.8978 0.3925
vn 0.5260 -0.0000 0.8505
vn 0.8985 -0.0000 -0.4390
vn 0.5666 0.7302 0.3817
vn 0.6839 -0.6325 0.3636
vn -0.0000 0.9041 0.4274
vn -0.0000 1.0000 -0.0000
vn -0.1957 0.8792 0.4343
vn -0.2173 0.9761 -0.0000
vn -0.0000 -0.9041 0.4274
vn -0.0000 -1.0000 -0.0000
vn 0.1957 -0.8792 0.4343
vn 0.2173 -0.9761 -0.0000
vn -0.9331 -0.0000 0.3596
vn -1.0000 -0.0000 -0.0000
vn -0.8321 -0.3815 0.4027
vn -0.9090 -0.4167 -0.0000
vn 0.9331 -0.0000 0.3596
vn 1.0000 -0.0000 -0.0000
vn 0.8321 0.3815 0.4027
vn 0.9090 0.4167 -0.0000
vn -0.1957 -0.8792 0.4343
vn -0.2173 -0.9761 -0.0000
vn 0.8321 -0.3815 0.4027
vn 0.9090 -0.4167 -0.0000
vn -0.8321 0.3815 0.4027
vn -0.9090 0.4167 -0.0000
vn 0.1957 0.8792 0.4343
vn 0.2173 0.9761 -0.0000
vn 0.1999 0.8978 0.3925
vn 0.8471 -0.3883 0.3629
vn -0.1999 -0.8978 0.3925
vn -0.8471 0.3883 0.3629
vn -0.1914 0.8596 -0.4738
vn 0.8160 0.3741 -0.4407
vn 0.1914 -0.8596 -0.4738
vn -0.8160 -0.3741 -0.4407
vn 0.6839 0.6325 0.3636
vn 0.5666 -0.7302 0.3817
vt 0.187500 0.437500
vt 0.125000 0.416667
vt 0.187500 0.395833
vt 0.312500 0.437500
vt 0.353253 0.500000
vt 0.281250 0.437500
vt 0.312500 0.312500
vt 0.429337 0.333333
vt 0.312500 0.354167
vt 0.187500 0.312500
vt 0.201084 0.250000
vt 0.218750 0.312500
vt 0.187500 0.354167
vt 0.218750 0.354167
vt 0.812500 0.312500
vt 0.875000 0.333333
vt 0.812500 0.354167
vt 0.812500 0.437500
vt 0.799020 0.500000
vt 0.781250 0.437500
vt 0.687500 0.437500
vt 0.571080 0.416667
vt 0.687500 0.395833
vt 0.687500 0.312500
vt 0.647060 0.250000
vt 0.718750 0.312500
vt 0.437500 0.833333
vt 0.479167 0.750000
vt 0.479167 0.833333
vt 0.687500 0.354167
vt 0.718750 0.354167
vt 0.478521 0.062500
vt 0.437500 0.000000
vt 0.479167 0.000000
vt 0.477230 0.562500
vt 0.429337 0.500000
vt 0.476585 0.500000
vt 0.476585 0.250000
vt 0.476585 0.333333
vt 0.437500 0.750000
vt 0.478521 0.687500
vt 0.433419 0.625000
vt 0.477876 0.625000
vt 0.429337 0.250000
vt 0.477230 0.187500
vt 0.433419 0.125000
vt 0.477876 0.125000
vt 0.781250 0.354167
vt 0.750000 0.354167
vt 0.781250 0.312500
vt 0.750000 0.312500
vt 0.799020 0.250000
vt 0.875000 0.250000
vt 0.723040 0.250000
vt 0.647060 0.500000
vt 0.571080 0.500000
vt 0.718750 0.437500
vt 0.723040 0.500000
vt 0.750000 0.437500
vt 0.281250 0.354167
vt 0.250000 0.354167
vt 0.281250 0.312500
vt 0.250000 0.312500
vt 0.353253 0.250000
vt 0.277169 0.250000
vt 0.201084 0.500000
vt 0.125000 0.500000
vt 0.245479 0.451540
vt 0.271066 0.485960
vt 0.238945 0.485960
vt 0.266727 0.451540
vt 0.256103 0.451540
vt 0.218750 0.437500
vt 0.250000 0.395833
vt 0.250000 0.437500
vt 0.218750 0.395833
vt 0.281250 0.395833
vt 0.312500 0.395833
vt 0.750000 0.395833
vt 0.718750 0.395833
vt 0.781250 0.395833
vt 0.812500 0.395833
vt 0.429337 0.416667
vt 0.476585 0.416667
vt 0.479167 1.000000
vt 0.437500 0.916667
vt 0.479167 0.916667
vt 0.571080 0.333333
vt 0.571080 0.250000
vt 0.875000 0.416667
vt 0.875000 0.500000
vt 0.125000 0.333333
vt 0.125000 0.250000
vt 0.303187 0.485960
vt 0.277169 0.500000
vt 0.520833 0.916667
vt 0.562500 0.833333
vt 0.562500 0.916667
vt 0.520833 0.833333
vt 0.520833 1.000000
vt 0.562500 1.000000
vt 0.523833 0.416667
vt 0.523833 0.333333
vt 0.523833 0.500000
vt 0.566790 0.125000
vt 0.521583 0.062500
vt 0.564645 0.062500
vt 0.522333 0.125000
vt 0.523083 0.187500
vt 0.568935 0.187500
vt 0.523833 0.250000
vt 0.566790 0.625000
vt 0.523083 0.562500
vt 0.568935 0.562500
vt 0.522333 0.625000
vt 0.521583 0.687500
vt 0.564645 0.687500
vt 0.562500 0.750000
vt 0.520833 0.750000
vt 0.562500 0.000000
vt 0.520833 0.000000
vt 0.435459 0.062500
vt 0.431378 0.562500
vt 0.435459 0.687500
vt 0.431378 0.187500
vt 0.437500 1.000000
s 0
f 3/1/1 43/2/1 42/3/1
f 7/4/2 72/5/2 71/6/2
f 5/7/3 47/8/3 46/9/3
f 1/10/4 26/11/4 25/12/4
f 41/13/5 25/12/5 68/14/5
f 9/15/6 51/16/6 50/17/6
f 12/18/7 32/19/7 31/20/7
f 16/21/8 55/22/8 54/23/8
f 14/24/9 38/25/9 37/26/9
f 43/27/10 77/28/10 101/29/10
f 53/30/11 37/26/11 62/31/11
f 93/32/12 2/33/12 76/34/12
f 87/35/13 8/36/13 81/37/13
f 47/8/14 80/38/14 97/39/14
f 4/40/15 83/41/15 77/28/15
f 83/41/16 73/42/16 85/43/16
f 73/42/16 87/35/16 85/43/16
f 6/44/17 89/45/17 80/38/17
f 89/45/18 27/46/18 91/47/18
f 27/46/18 93/32/18 91/47/18
f 58/48/11 9/15/11 50/17/11
f 60/49/11 35/50/11 58/48/11
f 62/31/11 36/51/11 60/49/11
f 9/15/19 40/52/19 10/53/19
f 35/50/9 39/54/9 40/52/9
f 37/26/9 39/54/9 36/51/9
f 16/21/20 34/55/20 15/56/20
f 29/57/7 33/58/7 34/55/7
f 31/20/7 33/58/7 30/59/7
f 64/60/5 5/7/5 46/9/5
f 66/61/5 23/62/5 64/60/5
f 68/14/5 24/63/5 66/61/5
f 5/7/21 28/64/21 6/44/21
f 23/62/4 27/65/4 28/64/4
f 25/12/4 27/65/4 24/63/4
f 3/1/22 74/66/22 4/67/22
f 17/68/23 21/69/23 22/70/23
f 19/71/23 21/69/23 18/72/23
f 69/73/5 65/74/5 70/75/5
f 67/76/5 66/61/5 65/74/5
f 70/75/5 63/77/5 71/6/5
f 65/74/5 64/60/5 63/77/5
f 71/6/5 45/78/5 7/4/5
f 63/77/5 46/9/5 45/78/5
f 29/57/11 59/79/11 30/59/11
f 61/80/11 60/49/11 59/79/11
f 30/59/11 57/81/11 31/20/11
f 59/79/11 58/48/11 57/81/11
f 31/20/11 49/82/11 12/18/11
f 57/81/11 50/17/11 49/82/11
f 81/37/24 48/83/24 95/84/24
f 48/83/25 97/39/25 95/84/25
f 16/21/11 61/80/11 29/57/11
f 54/23/11 62/31/11 61/80/11
f 76/85/26 44/86/26 99/87/26
f 44/86/27 101/29/27 99/87/27
f 14/24/28 56/88/28 13/89/28
f 54/23/8 56/88/8 53/30/8
f 12/18/29 52/90/29 11/91/29
f 50/17/6 52/90/6 49/82/6
f 3/1/5 67/76/5 69/73/5
f 42/3/5 68/14/5 67/76/5
f 7/4/30 48/83/30 8/36/30
f 46/9/3 48/83/3 45/78/3
f 1/10/31 44/92/31 2/93/31
f 42/3/1 44/92/1 41/13/1
f 17/68/32 70/75/32 18/72/32
f 19/71/32 70/75/32 71/6/32
f 20/94/33 73/95/33 21/69/33
f 22/70/33 73/95/33 74/66/33
f 17/68/34 74/66/34 69/73/34
f 19/71/35 72/5/35 20/94/35
f 100/96/36 52/97/36 51/98/36
f 99/87/37 102/99/37 100/96/37
f 75/100/38 51/98/38 10/101/38
f 76/85/39 100/96/39 75/100/39
f 96/102/40 56/88/40 55/22/40
f 95/84/41 98/103/41 96/102/41
f 82/104/42 55/22/42 15/56/42
f 81/37/43 96/102/43 82/104/43
f 39/105/44 94/106/44 40/107/44
f 91/47/45 94/106/45 92/108/45
f 90/109/44 39/105/44 38/110/44
f 89/45/45 92/108/45 90/109/45
f 13/89/46 90/109/46 38/110/46
f 80/38/47 90/109/47 79/111/47
f 33/112/48 88/113/48 34/114/48
f 85/43/49 88/113/49 86/115/49
f 84/116/48 33/112/48 32/117/48
f 83/41/49 86/115/49 84/116/49
f 11/118/50 84/116/50 32/117/50
f 77/28/51 84/116/51 78/119/51
f 56/88/52 79/111/52 13/89/52
f 97/39/53 79/111/53 98/103/53
f 88/113/54 15/56/54 34/114/54
f 87/35/55 82/104/55 88/113/55
f 94/106/56 10/120/56 40/107/56
f 93/32/57 75/121/57 94/106/57
f 52/97/58 78/119/58 11/118/58
f 101/29/59 78/119/59 102/99/59
f 3/1/60 4/67/60 43/2/60
f 7/4/61 8/36/61 72/5/61
f 5/7/62 6/44/62 47/8/62
f 1/10/63 2/93/63 26/11/63
f 41/13/5 1/10/5 25/12/5
f 9/15/64 10/53/64 51/16/64
f 12/18/65 11/91/65 32/19/65
f 16/21/66 15/56/66 55/22/66
f 14/24/67 13/89/67 38/25/67
f 43/27/10 4/40/10 77/28/10
f 53/30/11 14/24/11 37/26/11
f 93/32/12 26/122/12 2/33/12
f 87/35/13 72/123/13 8/36/13
f 47/8/14 6/44/14 80/38/14
f 4/40/15 74/124/15 83/41/15
f 83/41/16 74/124/16 73/42/16
f 73/42/16 72/123/16 87/35/16
f 6/44/17 28/125/17 89/45/17
f 89/45/18 28/125/18 27/46/18
f 27/46/18 26/122/18 93/32/18
f 58/48/11 35/50/11 9/15/11
f 60/49/11 36/51/11 35/50/11
f 62/31/11 37/26/11 36/51/11
f 9/15/9 35/50/9 40/52/9
f 35/50/9 36/51/9 39/54/9
f 37/26/9 38/25/9 39/54/9
f 16/21/7 29/57/7 34/55/7
f 29/57/7 30/59/7 33/58/7
f 31/20/7 32/19/7 33/58/7
f 64/60/5 23/62/5 5/7/5
f 66/61/5 24/63/5 23/62/5
f 68/14/5 25/12/5 24/63/5
f 5/7/4 23/62/4 28/64/4
f 23/62/4 24/63/4 27/65/4
f 25/12/4 26/11/4 27/65/4
f 3/1/2 69/73/2 74/66/2
f 17/68/23 18/72/23 21/69/23
f 19/71/23 20/94/23 21/69/23
f 69/73/5 67/76/5 65/74/5
f 67/76/5 68/14/5 66/61/5
f 70/75/5 65/74/5 63/77/5
f 65/74/5 66/61/5 64/60/5
f 71/6/5 63/77/5 45/78/5
f 63/77/5 64/60/5 46/9/5
f 29/57/11 61/80/11 59/79/11
f 61/80/11 62/31/11 60/49/11
f 30/59/11 59/79/11 57/81/11
f 59/79/11 60/49/11 58/48/11
f 31/20/11 57/81/11 49/82/11
f 57/81/11 58/48/11 50/17/11
f 81/37/24 8/36/24 48/83/24
f 48/83/25 47/8/25 97/39/25
f 16/21/11 54/23/11 61/80/11
f 54/23/11 53/30/11 62/31/11
f 76/85/26 2/126/26 44/86/26
f 44/86/27 43/27/27 101/29/27
f 14/24/8 53/30/8 56/88/8
f 54/23/8 55/22/8 56/88/8
f 12/18/6 49/82/6 52/90/6
f 50/17/6 51/16/6 52/90/6
f 3/1/5 42/3/5 67/76/5
f 42/3/5 41/13/5 68/14/5
f 7/4/3 45/78/3 48/83/3
f 46/9/3 47/8/3 48/83/3
f 1/10/1 41/13/1 44/92/1
f 42/3/1 43/2/1 44/92/1
f 17/68/32 69/73/32 70/75/32
f 19/71/32 18/72/32 70/75/32
f 20/94/33 72/5/33 73/95/33
f 22/70/33 21/69/33 73/95/33
f 17/68/68 22/70/68 74/66/68
f 19/71/69 71/6/69 72/5/69
f 100/96/36 102/99/36 52/97/36
f 99/87/37 101/29/37 102/99/37
f 75/100/38 100/96/38 51/98/38
f 76/85/39 99/87/39 100/96/39
f 96/102/40 98/103/40 56/88/40
f 95/84/41 97/39/41 98/103/41
f 82/104/42 96/102/42 55/22/42
f 81/37/43 95/84/43 96/102/43
f 39/105/44 92/108/44 94/106/44
f 91/47/45 93/32/45 94/106/45
f 90/109/44 92/108/44 39/105/44
f 89/45/45 91/47/45 92/108/45
f 13/89/46 79/111/46 90/109/46
f 80/38/47 89/45/47 90/109/47
f 33/112/48 86/115/48 88/113/48
f 85/43/49 87/35/49 88/113/49
f 84/116/48 86/115/48 33/112/48
f 83/41/49 85/43/49 86/115/49
f 11/118/50 78/119/50 84/116/50
f 77/28/51 83/41/51 84/116/51
f 56/88/52 98/103/52 79/111/52
f 97/39/53 80/38/53 79/111/53
f 88/113/54 82/104/54 15/56/54
f 87/35/55 81/37/55 82/104/55
f 94/106/56 75/121/56 10/120/56
f 93/32/57 76/34/57 75/121/57
f 52/97/58 102/99/58 78/119/58
f 101/29/59 77/28/59 78/119/59
